<svg xmlns="http://www.w3.org/2000/svg" xmlns:xlink="http://www.w3.org/1999/xlink" width="500" zoomAndPan="magnify" viewBox="0 0 375 374.999991" height="500" preserveAspectRatio="xMidYMid meet" version="1.0"><defs><clipPath id="486a4a60c5"><path d="M 0.511719 0 L 374.761719 0 L 374.761719 375 L 0.511719 375 Z M 0.511719 0 " clip-rule="nonzero"/></clipPath><clipPath id="a5052f97f4"><path d="M 90.242188 81.785156 L 284.492188 81.785156 L 284.492188 293.285156 L 90.242188 293.285156 Z M 90.242188 81.785156 " clip-rule="nonzero"/></clipPath></defs><g clip-path="url(#486a4a60c5)"><path fill="#915eff" d="M 193.324219 2.359375 L 174.308594 3.960938 L 177.578125 4.195312 L 193.324219 2.359375 M 215.398438 22.832031 L 214.28125 22.90625 L 214.28125 22.910156 L 214.515625 22.957031 L 215.398438 22.832031 M 210.167969 23.191406 L 197.839844 24.035156 L 202.5 24.644531 L 211.078125 23.4375 L 210.167969 23.191406 M 180.523438 27.628906 L 180.886719 27.675781 L 179.585938 27.859375 L 180.523438 27.628906 M 165.441406 24.96875 L 154.011719 28.484375 L 157.3125 26.082031 L 165.441406 24.96875 M 168.4375 30.828125 L 168.039062 30.835938 L 166.648438 31.304688 C 167.246094 31.148438 167.84375 30.988281 168.4375 30.828125 M 199.390625 30.078125 L 212.046875 31.722656 L 212.601562 32.324219 L 199.402344 30.28125 L 186.167969 31.515625 L 172.777344 30.722656 L 199.390625 30.078125 M 227.039062 33.839844 L 227.375 33.957031 L 227.304688 33.957031 C 227.214844 33.917969 227.128906 33.878906 227.039062 33.839844 M 188 -0.261719 L 224.289062 8.292969 L 243.445312 11.0625 L 265.679688 21.261719 L 292.382812 34.976562 L 259.449219 15.027344 L 249.535156 10.882812 L 217.511719 1.207031 L 188 -0.261719 M 228.738281 34.59375 L 230.070312 34.910156 L 230.6875 35.128906 L 229.546875 34.953125 L 228.738281 34.59375 M 214.515625 22.957031 L 211.078125 23.4375 L 256.886719 35.875 L 255.039062 34.828125 L 229.277344 25.933594 L 214.515625 22.957031 M 179.15625 27.453125 L 180.460938 27.621094 L 179.511719 27.871094 L 177.847656 28.101562 L 157.792969 33.179688 L 179.1875 27.957031 L 168.4375 30.828125 L 171.757812 30.746094 L 160.621094 33.902344 L 158.664062 34.085938 L 156.957031 34.859375 L 155.789062 34.960938 L 166.648438 31.304688 L 153.910156 34.707031 L 153.246094 35.191406 L 144.117188 36.015625 L 146.320312 35.039062 L 179.15625 27.453125 M 151.648438 36.355469 L 151.550781 36.429688 L 151.453125 36.5 C 150.976562 36.636719 150.496094 36.769531 150.019531 36.90625 C 150.5625 36.722656 151.105469 36.539062 151.648438 36.355469 M 256.886719 35.875 L 258.847656 36.984375 L 259.21875 36.507812 L 256.886719 35.875 M 190.371094 8.398438 L 150.519531 19.171875 L 116.195312 35.226562 L 113.667969 37.035156 L 117.171875 35.625 L 118.769531 34.480469 L 154.144531 18.519531 L 189.957031 9.199219 L 190.371094 8.398438 M 133.753906 22.445312 L 123.960938 23.601562 L 96.976562 37.996094 L 127.914062 23.808594 L 102.308594 36.800781 L 133.753906 22.445312 M 125.644531 35.246094 L 124.199219 36.777344 L 122.753906 38.3125 L 115.832031 40.546875 C 119.101562 38.78125 122.375 37.011719 125.644531 35.246094 M 140.867188 39.988281 L 134.570312 42.628906 L 135.898438 41.664062 L 140.867188 39.988281 M 251.332031 42.425781 L 252.917969 43.222656 C 253.390625 43.3125 253.863281 43.398438 254.335938 43.484375 C 253.332031 43.132812 252.332031 42.777344 251.332031 42.425781 M 263.933594 45.023438 L 270.332031 46.4375 L 264.519531 45.363281 L 263.933594 45.023438 M 127.027344 48.117188 L 126.546875 48.46875 L 126.066406 48.816406 C 126.574219 48.589844 127.078125 48.359375 127.585938 48.128906 L 127.585938 48.132812 C 127.398438 48.125 127.210938 48.121094 127.027344 48.117188 M 241.824219 40.148438 L 249.996094 41.953125 L 251.332031 42.425781 L 250.707031 42.109375 L 256.300781 43.34375 L 257.308594 44.035156 L 254.335938 43.484375 L 258.820312 45.070312 L 265.046875 49.34375 L 261.199219 47.402344 L 258.578125 45.59375 L 259.753906 46.671875 L 252.917969 43.222656 L 243.375 41.476562 L 240.675781 40.160156 L 241.824219 40.148438 M 306.683594 50.253906 L 306.722656 50.28125 L 306.757812 50.3125 L 306.726562 50.277344 L 306.683594 50.253906 M 296.132812 48.820312 L 295.816406 48.851562 L 295.5 48.886719 L 299.710938 52.199219 C 298.515625 51.070312 297.324219 49.945312 296.132812 48.820312 M 293.179688 49.125 L 295.238281 51.007812 L 297.292969 52.890625 C 295.734375 51.65625 294.175781 50.417969 292.613281 49.183594 L 293.179688 49.125 M 148.953125 38.324219 L 148.414062 38.71875 L 127.585938 48.128906 L 133.484375 48.25 L 132.824219 49.875 L 121.292969 52.289062 L 126.066406 48.816406 L 120.492188 51.335938 L 118.964844 52.777344 L 118.828125 52.804688 L 118.0625 53.222656 L 124.449219 48.066406 L 127.027344 48.121094 L 133.601562 43.332031 L 148.953125 38.324219 M 106.871094 43.011719 L 104.773438 43.957031 L 102.679688 44.898438 C 98.253906 48.066406 93.828125 51.234375 89.402344 54.402344 L 97.863281 49.472656 L 106.871094 43.011719 M 89.402344 54.402344 L 84.957031 56.988281 L 83.804688 58.171875 L 83.859375 58.867188 L 85.738281 57.023438 L 89.402344 54.402344 M 279.050781 34.765625 L 310.164062 59.796875 L 310.371094 59.839844 L 296.445312 43.824219 L 279.050781 34.765625 M 113.398438 58.035156 L 111.570312 59.761719 L 109.738281 61.488281 C 109.328125 61.683594 108.917969 61.875 108.507812 62.070312 L 109.773438 60.671875 L 113.398438 58.035156 M 83.859375 58.867188 L 78.671875 63.96875 C 80.453125 62.894531 82.234375 61.816406 84.015625 60.738281 C 83.964844 60.113281 83.910156 59.492188 83.859375 58.867188 M 87.101562 54.789062 L 79.167969 60.871094 L 74.679688 66.386719 L 77.398438 64.738281 L 83.804688 58.171875 L 83.761719 57.683594 L 84.957031 56.988281 L 87.101562 54.789062 M 94.402344 62.824219 L 91.660156 65.449219 L 88.921875 68.070312 L 91.929688 64.574219 L 94.402344 62.824219 M 306.757812 50.3125 L 329.859375 75.96875 C 326.277344 70.664062 322.691406 65.355469 319.109375 60.050781 L 306.757812 50.3125 M 262.863281 74.332031 L 263.59375 74.71875 L 264.320312 75.105469 L 266.800781 77.765625 L 265.625 77.019531 L 262.863281 74.332031 M 86.886719 42.558594 L 76 49.570312 L 51.03125 78.625 L 71.007812 56.019531 L 89.253906 44.152344 L 86.886719 42.558594 M 296.382812 80.054688 L 296.925781 80.476562 L 297.472656 80.898438 L 296.457031 80.1875 L 296.382812 80.054688 M 324.929688 76.585938 L 328.257812 81.109375 L 331.585938 85.628906 L 330.457031 82.945312 L 324.929688 76.585938 M 308.226562 69.257812 L 309.273438 72.984375 L 309.238281 73.140625 L 308.355469 72.25 L 312.566406 82.242188 L 316.359375 85.726562 L 308.226562 69.257812 M 74.765625 86.539062 L 74.40625 87.164062 L 74.371094 87.183594 L 74.371094 87.1875 L 74.765625 86.539062 M 270.042969 68.378906 L 290.199219 85.574219 L 291.34375 87.433594 L 274.609375 73.515625 L 270.042969 68.378906 M 305.144531 64.105469 L 311.136719 72.847656 L 317.132812 81.589844 L 321.324219 87.632812 C 319.351562 82.949219 317.382812 78.265625 315.410156 73.582031 L 305.144531 64.105469 M 319.6875 78.265625 L 323.125 83.363281 L 326.558594 88.460938 L 324.058594 84.234375 L 319.6875 78.265625 M 316.636719 90.859375 L 316.652344 90.890625 C 316.703125 90.9375 316.753906 90.988281 316.808594 91.039062 L 316.636719 90.859375 M 292.535156 91.777344 L 292.625 91.921875 L 292.710938 92.070312 L 292.566406 91.796875 L 292.535156 91.777344 M 100.195312 81.96875 L 98.945312 82.601562 C 95.074219 86.035156 91.203125 89.472656 87.335938 92.90625 C 90.820312 90.292969 94.304688 87.679688 97.789062 85.0625 L 100.195312 81.96875 M 202.023438 100.457031 L 200.835938 100.652344 L 201.050781 100.492188 C 201.375 100.480469 201.699219 100.46875 202.023438 100.457031 M 215.207031 99.960938 L 212.609375 101.078125 L 209.992188 100.15625 L 215.207031 99.960938 M 179.433594 102.230469 L 174.277344 105.046875 L 170.257812 105.710938 L 171.964844 103.484375 L 179.433594 102.230469 M 353.492188 80.054688 L 358.609375 94.566406 L 363.726562 109.074219 C 363.246094 106.933594 362.761719 104.792969 362.28125 102.652344 L 353.492188 80.054688 M 310.921875 49.269531 L 328.953125 70.46875 L 339.460938 90.578125 L 346.378906 105.730469 L 348.933594 109.203125 L 349.058594 109.558594 L 347.550781 101.234375 L 332.476562 74.554688 L 310.921875 49.269531 M 162.726562 109.386719 L 161.015625 111.566406 L 160.921875 111.640625 L 157.648438 114.683594 L 162.726562 109.386719 M 102.777344 78.648438 L 100.195312 81.96875 L 105.460938 79.3125 L 97.789062 85.0625 L 93.855469 90.125 L 91.253906 95.996094 L 77.730469 112.910156 L 72.445312 122.632812 L 74.0625 117.652344 L 90.625 93.910156 L 72.1875 118.738281 L 85.257812 95.523438 L 94.972656 83.125 L 102.777344 78.648438 M 341.160156 109.375 L 341.714844 111.988281 L 347.257812 127.589844 L 345.53125 118.804688 L 341.914062 110.203125 L 341.160156 109.375 M 289.082031 86.097656 L 292.351562 89.078125 L 305.910156 111.171875 L 308.066406 117.332031 L 292.710938 92.070312 L 311.148438 126.144531 L 312.125 128.929688 L 303.828125 117.234375 L 292.296875 92.601562 L 288.875 89.242188 L 292.535156 91.777344 L 289.082031 86.097656 M 347.257812 127.589844 L 347.371094 128.15625 L 347.480469 128.722656 L 348.617188 131.40625 C 348.164062 130.132812 347.710938 128.859375 347.257812 127.589844 M 343.039062 118.203125 L 343.875 122.125 L 344.707031 126.046875 L 348.289062 132.832031 C 348.019531 131.460938 347.75 130.089844 347.480469 128.722656 L 343.039062 118.203125 M 71.554688 119.863281 L 68.28125 130.300781 C 67.707031 131.355469 67.136719 132.410156 66.5625 133.46875 L 68.65625 125.007812 L 71.554688 119.863281 M 53.695312 133.097656 L 53.453125 134.027344 L 53.101562 134.667969 L 53.695312 133.097656 M 348.617188 131.40625 L 349.3125 133.363281 L 350.007812 135.324219 C 349.910156 134.886719 349.816406 134.453125 349.71875 134.019531 L 348.617188 131.40625 M 350.859375 140.949219 L 350.785156 142.683594 L 350.707031 144.421875 L 351.125 145.480469 C 351.035156 143.96875 350.949219 142.460938 350.859375 140.949219 M 140.171875 146.683594 L 140.085938 146.941406 L 140.003906 147.199219 C 139.992188 147.136719 139.984375 147.078125 139.976562 147.019531 C 140.039062 146.90625 140.105469 146.796875 140.171875 146.683594 M 144.441406 139.523438 L 140.972656 153.53125 L 140.492188 150.386719 L 143.808594 140.585938 L 144.441406 139.523438 M 140.613281 139.375 L 136.410156 155.757812 L 138.933594 142.0625 L 140.613281 139.375 M 351.125 145.480469 L 351.292969 148.339844 L 351.460938 151.195312 L 354.242188 157.910156 L 352.371094 148.625 L 351.125 145.480469 M 314.746094 139 L 315.957031 144.753906 L 317.171875 150.503906 C 316.820312 149.574219 316.472656 148.644531 316.121094 147.710938 L 317.335938 160.386719 C 316.472656 153.257812 315.609375 146.128906 314.746094 139 M 317.183594 132.472656 L 320.394531 142.671875 L 323.609375 152.871094 L 324.945312 161.507812 L 319.078125 140.046875 L 317.183594 132.472656 M 350.507812 148.898438 L 350.308594 153.390625 L 350.265625 156.855469 L 352.21875 164.148438 L 351.460938 151.195312 L 350.507812 148.898438 M 15.976562 128.171875 L 15.871094 131.277344 L 15.769531 134.378906 C 16 136.292969 16.226562 138.207031 16.457031 140.121094 C 13.15625 149.371094 9.859375 158.621094 6.558594 167.871094 L 15.976562 128.171875 M 363.726562 109.074219 L 370.792969 140.515625 L 374.394531 172.984375 L 371.816406 135.882812 L 368.75 126.34375 L 368.25 121.902344 L 363.726562 109.074219 M 187.519531 173.796875 L 187.488281 174.34375 L 187.464844 174.441406 C 187.480469 174.226562 187.5 174.011719 187.519531 173.796875 M 320.601562 175.417969 L 320.6875 176.1875 L 320.773438 176.953125 L 320.648438 178.027344 L 320.382812 176.628906 L 320.601562 175.417969 M 201.011719 176.734375 L 200.195312 179.003906 L 199.375 181.269531 L 199.316406 179.65625 C 199.882812 178.683594 200.449219 177.710938 201.011719 176.734375 M 320.03125 178.59375 L 320.136719 182.351562 L 320.070312 182.925781 C 319.960938 182.019531 319.851562 181.109375 319.742188 180.203125 L 320.03125 178.59375 M 363.609375 168.417969 L 364.03125 184.136719 L 364.585938 177.453125 C 364.261719 174.441406 363.933594 171.429688 363.609375 168.417969 M 326.5625 171.953125 L 328.429688 184.015625 C 328.339844 185.167969 328.25 186.324219 328.160156 187.480469 L 326.5625 171.953125 M 201.671875 186.738281 L 200.6875 188.433594 L 199.703125 190.125 L 199.617188 187.742188 C 200.300781 187.410156 200.988281 187.074219 201.671875 186.738281 M 269.652344 189.5 L 269.699219 189.679688 L 269.382812 190.484375 C 269.472656 190.15625 269.5625 189.828125 269.652344 189.5 M 319.246094 182.9375 L 319.886719 184.5 L 319.0625 191.476562 C 318.953125 190.296875 318.84375 189.121094 318.730469 187.941406 C 318.714844 187.3125 318.699219 186.683594 318.683594 186.054688 L 319.246094 182.9375 M 321.574219 188.648438 L 322.046875 189.804688 L 322.105469 190.628906 L 321.457031 194.351562 L 321.246094 192.609375 L 321.65625 191.019531 C 321.628906 190.230469 321.601562 189.4375 321.574219 188.648438 M 196.914062 186.910156 L 198.417969 187.878906 L 198.804688 191.671875 L 195.511719 197.339844 L 196.914062 186.910156 M 361.214844 187.878906 L 360.855469 190.179688 L 360.5 192.476562 C 360.183594 196.1875 359.871094 199.898438 359.558594 203.609375 C 360.246094 201.441406 360.9375 199.273438 361.628906 197.105469 L 361.214844 187.878906 M 314.8125 205.742188 L 314.808594 205.765625 L 314.804688 205.785156 C 314.796875 205.816406 314.785156 205.84375 314.777344 205.875 C 314.789062 205.832031 314.800781 205.789062 314.8125 205.742188 M 320.511719 195.453125 L 320.75 203.738281 L 320.988281 212.027344 C 320.566406 207.523438 320.144531 203.023438 319.722656 198.519531 C 319.984375 197.496094 320.25 196.476562 320.511719 195.453125 M 129.226562 222.722656 L 129.550781 223.953125 L 129.871094 225.183594 C 129.75 225.097656 129.632812 225.015625 129.511719 224.929688 C 129.417969 224.195312 129.320312 223.460938 129.226562 222.722656 M 133.765625 227.027344 L 134.976562 228.761719 L 133.960938 228.050781 C 133.894531 227.710938 133.832031 227.371094 133.765625 227.027344 M 368.773438 181.671875 L 365.992188 187.105469 L 364.484375 200.949219 L 364.664062 207.597656 L 363.316406 211.671875 L 362.679688 217.488281 L 360.9375 230.230469 L 365.3125 217.199219 L 367.9375 214.226562 L 368.773438 181.671875 M 17.863281 166.332031 L 14.378906 189.695312 L 14.644531 198.613281 L 22.628906 231.394531 L 19.355469 212.339844 L 16.359375 191.875 L 17.863281 166.332031 M 124.140625 226.054688 L 125.675781 227.972656 L 126.890625 231.714844 L 125.761719 230.9375 L 124.140625 226.054688 M 130.71875 234.28125 L 130.773438 234.347656 L 130.832031 234.417969 L 130.730469 234.347656 L 130.71875 234.28125 M 130.246094 230.625 L 131.632812 231.890625 L 132.621094 235.648438 L 131.367188 234.789062 L 130.65625 233.789062 L 130.246094 230.625 M 138.167969 237.835938 L 138.484375 238.125 L 138.804688 238.417969 L 139.675781 240.492188 L 139.269531 240.214844 L 138.167969 237.835938 M 54.816406 240.480469 L 54.847656 240.546875 L 54.855469 240.597656 L 54.816406 240.480469 M 17.226562 223.417969 L 21.855469 233.746094 L 26.484375 244.070312 C 26.523438 244.113281 26.566406 244.15625 26.609375 244.195312 L 17.226562 223.417969 M 345.460938 221.089844 L 343.628906 225.632812 L 337.679688 238.214844 L 335.785156 244.53125 L 338.316406 245.25 L 345.460938 221.089844 M 300.757812 237.304688 L 299.5 240.179688 L 298.246094 243.054688 L 294.628906 249.476562 C 296.671875 245.421875 298.714844 241.363281 300.757812 237.304688 M 364.03125 184.136719 L 361.339844 216.738281 L 355.339844 232.566406 L 348.707031 251.75 L 351.382812 247.746094 L 363.316406 211.671875 L 364.484375 200.949219 L 364.03125 184.136719 M 55.757812 237.402344 L 60.101562 245.507812 L 64.441406 253.613281 C 63.53125 252.457031 62.625 251.304688 61.714844 250.148438 L 55.757812 237.402344 M 131.433594 254.671875 L 138.789062 261.523438 L 137.402344 261.398438 L 133.152344 257.5 L 131.433594 254.671875 M 129.417969 241.941406 L 130.363281 242.398438 L 132.886719 250.164062 L 142.042969 261.8125 L 141.191406 261.738281 L 133.125 253.113281 L 129.417969 241.941406 M 140.375 258.886719 L 142.054688 260.535156 L 143.117188 261.910156 L 142.609375 261.867188 L 140.375 258.886719 M 162.957031 261.863281 L 166.039062 263.488281 L 164.222656 263.777344 L 162.957031 261.863281 M 144.5 263.789062 L 144.578125 263.804688 L 144.644531 263.886719 L 144.5 263.789062 M 348.707031 251.75 L 346.765625 254.652344 L 344.828125 257.554688 C 344.476562 260.371094 344.128906 263.1875 343.777344 266.003906 C 345.421875 261.253906 347.0625 256.503906 348.707031 251.75 M 168.636719 265.621094 L 169.640625 266.835938 L 169.070312 266.867188 L 165.796875 266.167969 L 165.789062 266.152344 L 168.636719 265.621094 M 64.445312 261.804688 L 65.535156 263.183594 L 67.914062 268.414062 L 64.445312 261.804688 M 327.667969 246.160156 L 314.390625 268.878906 L 313.050781 269.535156 L 315.550781 264.480469 L 327.667969 246.160156 M 150.648438 272.570312 L 153.175781 274.921875 L 155.132812 277.453125 L 154.785156 277.34375 L 153.011719 275.714844 L 150.648438 272.570312 M 325.652344 277.753906 L 325.46875 278.03125 L 325.289062 278.308594 C 325.332031 278.269531 325.375 278.234375 325.417969 278.199219 L 325.652344 277.753906 M 76.171875 277.375 L 76.804688 277.8125 L 77.4375 278.253906 L 77.574219 278.425781 C 77.105469 278.074219 76.636719 277.726562 76.171875 277.375 M 311.824219 283.78125 L 310.472656 285.320312 L 310.285156 285.429688 L 310.164062 285.210938 L 311.824219 283.78125 M 342.191406 246.507812 L 325.652344 277.753906 L 336.777344 260.742188 L 331.996094 272.511719 L 325.417969 278.199219 L 322.410156 283.878906 L 320.570312 285.527344 L 325.289062 278.308594 L 323.5625 279.800781 L 342.191406 246.507812 M 298.164062 290.050781 L 297.476562 290.933594 L 296.792969 291.816406 C 296.757812 291.835938 296.722656 291.855469 296.6875 291.875 L 298.164062 290.050781 M 96.414062 292.511719 L 98.785156 293.695312 L 99.097656 294.042969 L 96.886719 292.863281 L 96.414062 292.511719 M 299.050781 294.792969 L 297 296.816406 L 294.945312 298.84375 C 294.625 298.949219 294.304688 299.054688 293.984375 299.164062 C 295.671875 297.707031 297.363281 296.25 299.050781 294.792969 M 100.648438 298.828125 L 107.078125 302.839844 L 107.25 303.027344 L 100.679688 298.863281 L 100.648438 298.828125 M 255.652344 305.007812 L 241.8125 312.253906 L 246.976562 309.203125 L 255.652344 305.007812 M 318.332031 276.347656 L 314.429688 280.804688 L 316.050781 277.996094 L 309.582031 284.160156 L 308.367188 281.972656 L 307.96875 282.339844 L 307.75 284.585938 L 301.90625 291.472656 L 293.746094 299.242188 L 289.621094 300.617188 L 288.894531 301.511719 L 289.558594 300.636719 L 286.699219 301.589844 L 280.6875 305.535156 L 271.011719 313.265625 L 284.710938 307.160156 L 292.339844 300.582031 L 290.199219 302.617188 L 306.367188 290.011719 L 299.773438 297.542969 L 303.734375 294.828125 L 297.792969 301.957031 L 311.242188 286.210938 L 313.390625 284.550781 L 318.792969 277.640625 L 318.332031 276.347656 M 371.820312 236.8125 L 355.699219 272.855469 L 347.613281 286.007812 L 347.050781 293.164062 L 326.546875 314.453125 L 332.179688 311.714844 L 354.453125 286.964844 L 366.957031 267.714844 L 361.527344 273.441406 L 371.820312 236.8125 M 265.273438 310.445312 L 264.332031 311.339844 L 257.945312 314.539062 L 256.515625 314.636719 L 265.273438 310.445312 M 46.277344 297.234375 L 48.082031 303.390625 L 62.765625 316.4375 C 62.40625 315.582031 62.046875 314.730469 61.6875 313.878906 C 56.550781 308.332031 51.414062 302.785156 46.277344 297.234375 M 229.09375 315.503906 L 233.910156 316.839844 L 230.953125 318.074219 L 228.523438 317.453125 L 225.597656 317.484375 L 224.460938 317.136719 L 229.09375 315.503906 M 124.035156 321.429688 L 124.125 321.46875 L 124.210938 321.507812 L 124.210938 321.511719 L 124.210938 321.507812 L 124.035156 321.429688 M 246.292969 320.378906 L 240.085938 323.488281 L 233.171875 323.410156 L 235.550781 322.589844 L 246.292969 320.378906 M 216.191406 321.234375 L 221.25 321.882812 L 214.363281 323.5625 L 207.527344 323.101562 L 211.90625 321.558594 L 216.191406 321.234375 M 324.125 302.976562 L 321.914062 304.074219 L 319.699219 305.171875 L 295.113281 327.945312 C 304.785156 319.621094 314.457031 311.300781 324.125 302.976562 M 371.308594 273.925781 L 363.308594 284.6875 L 355.3125 295.449219 L 323.417969 328.109375 L 348.949219 305.640625 L 371.308594 273.925781 M 217.210938 328.894531 L 217.335938 328.902344 C 217.269531 328.90625 217.207031 328.910156 217.140625 328.917969 L 217.210938 328.894531 M 323.417969 328.109375 L 322.050781 329.3125 C 322.195312 329.230469 322.339844 329.144531 322.488281 329.0625 C 322.796875 328.746094 323.105469 328.425781 323.417969 328.109375 M 26.609375 244.195312 L 34.332031 261.292969 L 61.0625 296.316406 L 81.878906 315.824219 L 100.175781 327.769531 L 107.839844 330.078125 L 94.550781 321.035156 L 83.210938 310.59375 L 72.734375 304.1875 L 43.109375 269.632812 L 27.914062 245.5 L 26.609375 244.195312 M 122.402344 319.417969 L 124.210938 321.507812 L 131.707031 324.785156 L 131.429688 324.703125 L 124.210938 321.507812 L 124.296875 321.609375 L 129.15625 324.042969 L 125.480469 322.972656 L 126.648438 324.320312 L 143.417969 330.765625 L 145.894531 331.101562 L 140.742188 328.824219 L 140.90625 328.804688 L 146.292969 331.160156 L 147.742188 331.355469 L 142.683594 328.582031 L 144.152344 328.402344 L 140.324219 327.289062 L 136.808594 325.363281 L 122.402344 319.417969 M 165.992188 333.800781 L 166.207031 333.867188 L 166.207031 333.871094 L 165.777344 333.8125 C 165.851562 333.808594 165.921875 333.804688 165.992188 333.800781 M 166.304688 333.789062 L 194.402344 334.648438 L 196.222656 334.832031 L 178.734375 335.574219 L 167.835938 334.089844 L 166.222656 333.792969 L 166.304688 333.789062 M 91.453125 303.554688 L 120.882812 321.636719 L 125.480469 322.972656 L 124.296875 321.605469 L 108.371094 313.628906 L 122.402344 319.417969 L 119.1875 315.707031 L 136.808594 325.363281 L 144.152344 328.402344 L 160.085938 333.035156 L 147.742188 331.355469 L 151.664062 333.503906 L 146.292969 331.15625 L 145.894531 331.101562 L 156.457031 335.777344 L 143.417969 330.765625 L 136.707031 329.851562 L 105.417969 314.132812 L 91.453125 303.554688 M 276.332031 327.578125 L 260.984375 334.644531 L 260.214844 336.128906 L 247.511719 338.132812 L 251.652344 335.332031 L 261.394531 332.421875 L 263.414062 331.238281 L 276.332031 327.578125 M 295.660156 334.15625 L 286 338.136719 L 276.335938 342.117188 L 282.597656 340.339844 C 286.953125 338.277344 291.304688 336.214844 295.660156 334.15625 M 159.746094 337.039062 L 202.347656 345.28125 L 214.921875 347.101562 L 205.261719 348.449219 L 171.511719 341.5625 L 159.746094 337.039062 M 322.050781 329.3125 L 287.347656 349.226562 L 313.097656 337.191406 L 322.050781 329.3125 M 175.304688 13.632812 L 149.515625 23.742188 C 148.761719 22.914062 137.980469 26.875 117.171875 35.625 L 106.871094 43.011719 L 116.054688 38.878906 C 101.050781 47.1875 91.800781 53.003906 88.304688 56.324219 L 60.785156 85.523438 L 78.671875 63.96875 L 69.019531 73.335938 L 74.679688 66.386719 L 70.113281 67.816406 L 93.734375 47.984375 L 87.101562 54.789062 L 96.1875 47.820312 C 99.015625 47.523438 104.84375 43.925781 113.667969 37.035156 L 105.730469 40.230469 L 109.058594 35.585938 L 91.769531 46.960938 L 65.308594 71.75 L 44.59375 100.523438 L 26.699219 144.960938 L 38.75 107.972656 L 36.730469 107.636719 L 31.613281 117.753906 L 23.882812 146.066406 L 18.722656 181.964844 L 22.640625 220.378906 L 38.765625 255.449219 L 60.867188 287.355469 L 88.972656 313.589844 L 122.484375 333.851562 L 159.691406 345.886719 L 197.558594 349.265625 C 186.085938 349.953125 172.605469 349.773438 157.117188 348.734375 L 198.003906 351.527344 L 232.503906 348.742188 L 238.492188 345.683594 L 286.230469 330.007812 L 319.699219 305.171875 L 346.082031 280.730469 L 359.785156 252.152344 L 328.351562 290.71875 L 300.378906 315.914062 L 292.910156 317.28125 L 313.773438 302.804688 L 328.769531 288.492188 C 330.386719 284.851562 330.621094 283.070312 329.480469 283.152344 L 325.441406 286.558594 L 344.828125 257.554688 L 357.207031 224.375 L 360.785156 208.265625 L 359.058594 209.511719 L 359.558594 203.609375 L 358.011719 208.46875 L 360.5 192.476562 L 361.101562 185.355469 L 361.214844 187.878906 L 362.5625 179.21875 C 361.523438 173.136719 361.148438 162.832031 361.441406 148.300781 L 363.609375 168.417969 L 363.121094 150.15625 L 360.90625 143.347656 L 360.972656 143.953125 L 349.058594 109.558594 L 349.667969 112.933594 L 346.378906 105.730469 L 331.585938 85.628906 L 341.914062 110.203125 L 344.367188 112.882812 L 349.71875 134.019531 L 359.582031 155.714844 L 360.097656 162.949219 L 357.476562 168.265625 L 355.734375 190.464844 C 356.085938 178.585938 354.917969 169.8125 352.21875 164.148438 L 352.929688 176.265625 L 347.976562 212.574219 L 345.460938 221.089844 L 352.101562 204.613281 L 340.398438 241.335938 L 343.140625 237.167969 L 355.507812 193.351562 L 355.027344 199.460938 L 344.292969 237.496094 L 325.148438 274.777344 L 329.933594 263.390625 L 318.792969 277.640625 L 319.585938 279.875 L 313.390625 284.550781 L 303.855469 296.746094 C 298.484375 301.90625 295.542969 303.976562 295.023438 302.964844 L 299.773438 297.542969 L 274.078125 315.136719 L 263.832031 318.164062 L 288.371094 299.390625 C 290.207031 298.792969 291.652344 297.824219 292.699219 296.484375 L 289.621094 300.617188 L 293.734375 295.523438 L 307.96875 282.339844 L 308.058594 281.421875 L 308.367188 281.972656 L 319.957031 271.238281 L 316.050781 277.996094 C 316.898438 277.988281 319.089844 275.800781 322.632812 271.4375 L 335.085938 245.054688 L 331.535156 251.199219 C 334.6875 248.195312 339.726562 233.882812 346.648438 208.273438 L 349.882812 187.742188 L 350.265625 156.855469 L 345.0625 137.433594 C 347.160156 140.808594 348.972656 144.628906 350.507812 148.898438 L 350.707031 144.421875 L 337.402344 110.796875 L 331.152344 104.980469 L 315.957031 84.097656 L 318.835938 95.144531 L 315.914062 90.191406 C 315.59375 89.78125 315.835938 90.003906 316.636719 90.859375 C 316.015625 90.433594 314.660156 87.5625 312.566406 82.242188 C 307.339844 78.523438 301.429688 72.019531 294.835938 62.730469 L 275.832031 47.882812 L 276.675781 47.054688 L 258.847656 36.984375 L 257.546875 38.660156 L 250.324219 37.140625 L 215.421875 27.476562 L 212.746094 25.976562 L 202.5 24.640625 L 180.574219 27.617188 L 197.839844 24.035156 L 184.722656 22.324219 L 199.527344 20.296875 C 208.796875 23.285156 213.714844 24.15625 214.28125 22.90625 L 200.605469 20.148438 L 205.488281 19.480469 L 251.519531 30.160156 L 294.390625 54.179688 L 305.144531 64.105469 L 304.179688 60.160156 L 319.6875 78.265625 L 311.097656 65.515625 L 315.230469 69.300781 C 320.414062 79.257812 327.003906 89.214844 335 99.171875 L 343.039062 118.203125 L 341.714844 111.988281 L 337.585938 100.367188 L 317.328125 67.847656 L 324.929688 76.585938 L 312.660156 60.355469 C 309.695312 59.0625 309.605469 59.671875 312.394531 62.171875 L 299.710938 52.199219 L 313.167969 64.894531 L 308.128906 61.464844 L 293.265625 49.117188 L 295.5 48.886719 L 279.605469 36.386719 L 233.472656 16.464844 L 175.304688 13.632812 M 276.335938 342.117188 L 240.589844 352.269531 L 227.878906 355.789062 L 227.796875 356.707031 L 259.328125 352.125 L 251.601562 352.3125 L 276.335938 342.117188 M 142.039062 345.308594 L 141.132812 346.902344 L 179.320312 358.277344 L 183.21875 357.527344 L 142.039062 345.308594 M 155.304688 3.15625 L 140.105469 4.5625 L 109.050781 17.96875 L 75.285156 38.863281 L 67.5 41.898438 L 40.097656 73.21875 L 50.511719 58.199219 C 38.738281 71.414062 30.65625 81.726562 26.265625 89.144531 L 13.820312 120.738281 L 2.527344 164.445312 L 0.472656 209.875 L 6.683594 227.203125 L 7.929688 225.257812 L 6.285156 214.164062 L 16.269531 241.058594 L 33.035156 270.785156 L 56.585938 303.132812 C 35.503906 276.710938 23.59375 260.84375 20.863281 255.535156 L 43.683594 289.859375 L 68.886719 316.394531 C 79.121094 322.851562 89.441406 329.960938 99.847656 337.71875 L 129.382812 350.457031 L 166.394531 360.460938 L 173.949219 361.136719 L 151.203125 355.527344 L 111.449219 341.628906 L 74.480469 317.402344 L 45.941406 288 L 42.359375 282.132812 L 72.257812 313.769531 L 102.917969 334.210938 L 79.136719 317.496094 L 50.394531 290.121094 L 35.015625 267.921875 L 15.648438 231.542969 L 8.746094 185.363281 L 14.246094 153.382812 L 20.976562 126.972656 L 40.847656 84.519531 L 48.421875 75.410156 L 27 114.234375 L 17.714844 141.441406 L 29.71875 116.484375 L 27.191406 118.335938 L 43.351562 84.976562 L 75.117188 48.097656 L 104.417969 31.0625 L 140.175781 14.695312 L 107.746094 26.90625 L 137.617188 14.273438 L 172.367188 7.292969 L 208.707031 9.371094 L 210.304688 8.277344 L 228.972656 12.417969 L 211.71875 6.609375 L 177.578125 4.195312 C 150.4375 6.992188 134.921875 9.167969 131.023438 10.726562 L 155.304688 3.15625 M 265.214844 360.875 L 261.179688 361.542969 L 217.269531 367.355469 L 177.742188 369.320312 L 225.488281 368.285156 L 252.601562 363.574219 L 263.929688 362.171875 L 265.214844 360.875 M 247.027344 370.136719 L 201.980469 374.59375 L 224.074219 373.816406 L 232.941406 373.324219 L 247.027344 370.136719 M 201.980469 374.59375 L 201.203125 374.625 L 200.425781 374.652344 L 201.019531 374.691406 C 201.339844 374.660156 201.660156 374.628906 201.980469 374.59375 M 137.210938 369.066406 L 180.285156 375.363281 L 200.425781 374.652344 L 158.996094 371.871094 L 137.210938 369.066406 " fill-opacity="1" fill-rule="nonzero"/></g><g clip-path="url(#a5052f97f4)"><path fill="#000000" d="M 157.96875 229.253906 C 157.96875 228.808594 157.746094 228.808594 157.523438 229.253906 L 144.382812 268.074219 C 144.382812 268.296875 144.605469 268.523438 144.605469 268.523438 C 144.828125 268.523438 144.828125 268.523438 144.828125 268.523438 L 169.328125 268.523438 C 169.773438 268.523438 169.996094 268.746094 169.996094 268.96875 L 172 273.207031 C 172 273.207031 172 273.429688 172 273.429688 C 172 273.429688 171.777344 273.652344 171.777344 273.652344 L 90.707031 273.652344 C 90.484375 273.652344 90.261719 273.429688 90.261719 273.207031 L 91.820312 268.746094 C 91.820312 268.746094 92.042969 268.523438 92.042969 268.523438 L 110.53125 268.523438 C 110.53125 268.523438 110.53125 268.523438 110.753906 268.523438 L 172 87.140625 C 172 86.917969 172 86.917969 171.777344 86.917969 L 153.515625 86.917969 C 153.515625 86.917969 153.515625 86.695312 153.515625 86.695312 L 155.074219 82.007812 C 155.074219 81.785156 155.074219 81.785156 155.296875 81.785156 L 228.125 81.785156 C 228.125 81.785156 228.347656 81.785156 228.347656 82.007812 L 226.789062 86.472656 C 226.789062 86.695312 226.566406 86.917969 226.34375 86.917969 L 206.300781 86.917969 C 206.078125 86.917969 205.855469 86.917969 205.632812 87.140625 L 174.226562 180.398438 C 174.003906 180.398438 174.003906 180.621094 174.003906 180.84375 C 174.003906 181.066406 174.003906 181.289062 174.226562 181.511719 L 208.972656 262.722656 C 209.195312 262.945312 209.417969 262.945312 209.640625 262.496094 C 212.3125 254.019531 214.316406 247.550781 215.875 242.863281 C 226.566406 211.183594 236.144531 181.734375 244.828125 154.515625 C 246.832031 148.714844 248.617188 142.023438 250.398438 136 C 251.066406 133.320312 251.511719 130.199219 251.957031 126.851562 C 252.179688 123.503906 251.066406 120.828125 248.394531 119.265625 C 246.164062 117.707031 243.714844 117.035156 240.597656 116.589844 C 237.703125 116.367188 234.363281 116.367188 229.90625 116.367188 C 229.683594 116.367188 229.683594 116.144531 229.683594 115.921875 L 229.683594 111.457031 C 229.683594 111.457031 229.683594 111.234375 229.90625 111.234375 L 284.027344 111.234375 C 284.25 111.234375 284.472656 111.457031 284.472656 111.679688 L 284.472656 115.921875 C 284.472656 116.144531 284.25 116.367188 284.027344 116.367188 C 280.6875 116.367188 278.015625 116.367188 275.34375 116.589844 C 271.777344 116.8125 269.328125 117.035156 268.214844 117.480469 C 263.761719 118.820312 261.980469 123.058594 260.195312 127.523438 C 259.75 128.636719 258.191406 133.097656 255.742188 140.90625 C 234.585938 205.382812 220.777344 247.550781 214.316406 267.628906 C 214.09375 268.074219 214.316406 268.296875 214.761719 268.296875 C 217.65625 267.851562 220.109375 267.628906 222.113281 267.628906 C 225.007812 267.183594 227.457031 266.960938 229.683594 266.511719 C 238.816406 264.503906 246.609375 260.042969 253.070312 252.90625 C 259.75 245.542969 264.875 236.617188 268.882812 227.246094 C 271.332031 221.671875 273.78125 215.199219 276.234375 208.285156 C 276.457031 207.839844 276.679688 207.613281 277.125 207.613281 L 280.6875 207.613281 C 280.910156 207.613281 281.132812 207.839844 281.132812 208.0625 C 281.132812 208.0625 281.132812 208.0625 281.132812 208.285156 L 258.859375 273.652344 L 212.535156 273.652344 C 212.535156 273.652344 212.3125 273.652344 212.3125 273.875 L 205.855469 293.0625 C 205.855469 293.285156 205.632812 293.285156 205.632812 293.285156 L 186.921875 293.285156 C 186.699219 293.285156 186.476562 293.0625 186.476562 292.839844 Z M 151.957031 129.976562 L 135.695312 177.941406 C 135.695312 177.941406 135.695312 178.164062 135.472656 178.164062 C 135.25 178.164062 135.25 178.164062 135.25 177.941406 L 107.855469 116.589844 C 107.855469 116.367188 107.632812 116.367188 107.632812 116.367188 L 93.15625 116.367188 C 92.933594 116.367188 92.710938 116.144531 92.710938 116.144531 L 92.710938 111.679688 C 92.710938 111.457031 92.933594 111.234375 93.15625 111.234375 L 157.96875 111.234375 C 157.96875 111.234375 158.191406 111.457031 158.191406 111.679688 L 156.632812 116.144531 C 156.632812 116.367188 156.632812 116.367188 156.410156 116.367188 L 146.609375 116.367188 C 146.609375 116.367188 146.386719 116.589844 146.386719 116.589844 C 146.386719 116.8125 146.386719 116.8125 146.386719 116.8125 L 151.957031 129.753906 C 151.957031 129.753906 151.957031 129.976562 151.957031 129.976562 Z M 151.957031 129.976562 " fill-opacity="1" fill-rule="evenodd"/></g></svg>